<svg xmlns="http://www.w3.org/2000/svg" viewBox="0 0 800 1000">
  <defs>
    <linearGradient id="bg" x1="0" y1="0" x2="1" y2="1">
      <stop offset="0" stop-color="#253139"/>
      <stop offset="1" stop-color="#0b1216"/>
    </linearGradient>
    <pattern id="grid" width="80" height="80" patternUnits="userSpaceOnUse">
      <path d="M80 0H0V80" fill="none" stroke="#fff" stroke-opacity=".045"/>
    </pattern>
  </defs>
  <rect width="800" height="1000" fill="url(#bg)"/>
  <rect width="800" height="1000" fill="url(#grid)"/>
  <path d="M90 760L710 280M150 870L710 430M90 580L500 260" stroke="#b79a72" stroke-opacity=".28"/>
  <circle cx="400" cy="365" r="142" fill="#d0c7bb"/>
  <path d="M215 1000V805c0-144 82-255 185-255s185 111 185 255v195" fill="#69757b"/>
  <path d="M263 318c18-115 74-177 137-177s119 62 137 177c-43-31-89-47-137-47s-94 16-137 47z" fill="#111a20"/>
  <path d="M290 1000V740l110 92 110-92v260" fill="#19242b"/>
  <path d="M400 832l-44 168h88z" fill="#8b2734"/>
  <text x="54" y="74" fill="#fff" fill-opacity=".5" font-family="Arial" font-size="18" letter-spacing="5">HOXHA ENGINEERING</text>
  <text x="54" y="946" fill="#fff" fill-opacity=".45" font-family="Arial" font-size="15" letter-spacing="4">PROFESSIONAL PROFILE</text>
</svg>
