<svg xmlns="http://www.w3.org/2000/svg" viewBox="0 0 800 1000">
  <defs>
    <linearGradient id="bg" x1="1" y1="0" x2="0" y2="1">
      <stop offset="0" stop-color="#303b41"/>
      <stop offset="1" stop-color="#0b1216"/>
    </linearGradient>
    <pattern id="grid" width="64" height="64" patternUnits="userSpaceOnUse">
      <path d="M64 0H0V64" fill="none" stroke="#fff" stroke-opacity=".04"/>
    </pattern>
  </defs>
  <rect width="800" height="1000" fill="url(#bg)"/>
  <rect width="800" height="1000" fill="url(#grid)"/>
  <path d="M75 825L725 825M75 875L725 875M145 250V910M655 250V910" stroke="#b79a72" stroke-opacity=".22"/>
  <circle cx="400" cy="365" r="142" fill="#c9c0b3"/>
  <path d="M215 1000V805c0-144 82-255 185-255s185 111 185 255v195" fill="#747d80"/>
  <path d="M252 331c12-128 71-196 148-196s136 68 148 196c-44-35-93-52-148-52s-104 17-148 52z" fill="#b79a72"/>
  <path d="M290 1000V740l110 92 110-92v260" fill="#19242b"/>
  <path d="M400 832l-44 168h88z" fill="#8b2734"/>
  <text x="54" y="74" fill="#fff" fill-opacity=".5" font-family="Arial" font-size="18" letter-spacing="5">HOXHA ENGINEERING</text>
  <text x="54" y="946" fill="#fff" fill-opacity=".45" font-family="Arial" font-size="15" letter-spacing="4">PROFESSIONAL PROFILE</text>
</svg>
